<?xml version="1.0" encoding="UTF-8"?>
<svg id="Layer_1" xmlns="http://www.w3.org/2000/svg" version="1.1" viewBox="0 0 512 512">
  <!-- Generator: Adobe Illustrator 29.8.3, SVG Export Plug-In . SVG Version: 2.1.1 Build 3)  -->
  <defs>
    <style>
      .st0 {
        fill: #231815;
      }
    </style>
  </defs>
  <path class="st0" d="M375.4,8.6h-238.8c-70.7,0-128,57.3-128,128v238.8c0,70.7,57.3,128,128,128h238.8c70.7,0,128-57.3,128-128v-238.8c0-70.7-57.3-128-128-128ZM256.5,389.5h-126c-12.7,0-23-10.3-23-23s10.3-23,23-23h126c12.7,0,23,10.3,23,23s-10.3,23-23,23ZM382.5,279.5h-252c-12.7,0-23-10.3-23-23s10.3-23,23-23h252c12.7,0,23,10.3,23,23s-10.3,23-23,23ZM382.5,169.5h-252c-12.7,0-23-10.3-23-23s10.3-23,23-23h252c12.7,0,23,10.3,23,23s-10.3,23-23,23Z"/>
</svg>