<?xml version="1.0" encoding="UTF-8"?><svg id="_레이어_1" xmlns="http://www.w3.org/2000/svg" width="24" height="24" viewBox="0 0 24 24"><path d="M22.28,4.4c-.97-1.32-3.59-1.17-6.78.11-1.98-.93-4.33-1.08-6.53-.21-3.63,1.43-5.68,5.15-5.16,8.85,0,0,0,0,0,0-2.16,2.68-3.06,5.14-2.09,6.45.97,1.32,3.59,1.18,6.79-.11,1.98.93,4.32,1.08,6.52.21,3.63-1.43,5.68-5.15,5.16-8.85,2.16-2.68,3.06-5.14,2.09-6.45ZM13.58,14.14c-4.73,3.5-9.27,5.38-10.15,4.19-.39-.53.03-1.6,1.04-2.92,0,0,0,0,0-.01.25.56.55,1.08.9,1.55.24-.07.52-.16.87-.3,1.81-.71,4.15-2.08,6.41-3.76,3.22-2.38,5.17-4.52,6.01-5.77-.36-.49-.77-.93-1.22-1.33,0,0,.01,0,.01,0,1.56-.58,2.71-.67,3.1-.14.88,1.18-2.25,4.98-6.98,8.48Z"/></svg>