<?xml version="1.0" encoding="UTF-8"?><svg id="_레이어_1" xmlns="http://www.w3.org/2000/svg" width="24" height="24" viewBox="0 0 24 24"><path d="M22.04,4.4c-.97-1.32-3.59-1.17-6.78.11-1.98-.93-4.33-1.08-6.53-.21-3.63,1.43-5.68,5.15-5.16,8.85h0c-2.16,2.67-3.06,5.13-2.09,6.45.97,1.31,3.59,1.17,6.78-.11,1.98.93,4.33,1.08,6.53.21,3.63-1.43,5.68-5.15,5.16-8.85,2.16-2.68,3.07-5.14,2.09-6.45ZM9.49,6.23c3.19-1.25,6.79.31,8.05,3.5.08.21.15.42.21.63-1.18,1.21-2.68,2.52-4.4,3.79-1.72,1.27-3.4,2.32-4.9,3.09-1.08-.68-1.95-1.69-2.46-2.96-1.25-3.19.31-6.79,3.5-8.05ZM3.2,18.34c-.39-.53.03-1.6,1.04-2.92.5,1.1,1.2,2.04,2.06,2.79-1.56.57-2.7.67-3.1.13ZM14.04,17.78c-.99.39-2.02.51-3.01.39,1.18-.65,2.39-1.42,3.59-2.31,1.2-.89,2.28-1.81,3.25-2.75-.37,2.04-1.75,3.85-3.83,4.67ZM19.29,8.59c-.5-1.1-1.2-2.04-2.05-2.79,1.56-.57,2.7-.67,3.09-.13.39.53-.03,1.6-1.04,2.92Z"/></svg>